HIERARCHY
ROOT Hips
{
  OFFSET 57.8838 95.319 338.509
  CHANNELS 6 Xposition Yposition Zposition Zrotation Xrotation Yrotation
  JOINT LeftUpLeg
  {
    OFFSET 8.64259 1.95398 -2.38835
    CHANNELS 3 Zrotation Xrotation Yrotation
    JOINT LeftLeg
    {
      OFFSET 43.7702 0 0
      CHANNELS 3 Zrotation Xrotation Yrotation
      JOINT LeftFoot
      {
        OFFSET 40.6238 0 0
        CHANNELS 3 Zrotation Xrotation Yrotation
        JOINT LeftToeBase
        {
          OFFSET 12.7242 0 0
          CHANNELS 3 Zrotation Xrotation Yrotation
          End Site
          {
            OFFSET 0 0 0
          }
        }
      }
    }
  }
  JOINT RightUpLeg
  {
    OFFSET -8.2249 1.95398 -2.59336
    CHANNELS 3 Zrotation Xrotation Yrotation
    JOINT RightLeg
    {
      OFFSET 43.5653 0 0
      CHANNELS 3 Zrotation Xrotation Yrotation
      JOINT RightFoot
      {
        OFFSET 40.6238 0 0
        CHANNELS 3 Zrotation Xrotation Yrotation
        JOINT RightToeBase
        {
          OFFSET 12.7242 0 0
          CHANNELS 3 Zrotation Xrotation Yrotation
          End Site
          {
            OFFSET 0 0 0
          }
        }
      }
    }
  }
  JOINT Spine
  {
    OFFSET 0.165834 0.87714 6.61349
    CHANNELS 3 Zrotation Xrotation Yrotation
    JOINT Spine1
    {
      OFFSET 7.38963 1.71661e-005 0
      CHANNELS 3 Zrotation Xrotation Yrotation
      JOINT Spine2
      {
        OFFSET 11.9445 1.14441e-005 0
        CHANNELS 3 Zrotation Xrotation Yrotation
        JOINT Spine3
        {
          OFFSET 14.7254 4.19617e-005 0
          CHANNELS 3 Zrotation Xrotation Yrotation
          JOINT Spine4
          {
            OFFSET 10.9679 0 0
            CHANNELS 3 Zrotation Xrotation Yrotation
            JOINT RightShoulder
            {
              OFFSET 2.46616 -1.6653 3.69651
              CHANNELS 3 Zrotation Xrotation Yrotation
              JOINT RightArm
              {
                OFFSET 13.0012 0 0
                CHANNELS 3 Zrotation Xrotation Yrotation
                JOINT RightForeArm
                {
                  OFFSET 28.7848 1.62311e-005 0
                  CHANNELS 3 Zrotation Xrotation Yrotation
                  JOINT RightHand
                  {
                    OFFSET 26.5688 1.62095e-005 0
                    CHANNELS 3 Zrotation Xrotation Yrotation
                    End Site
                    {
                      OFFSET 0 0 0
                    }
                  }
                }
              }
            }
            JOINT LeftShoulder
            {
              OFFSET 2.38034 -1.29275 -3.7523
              CHANNELS 3 Zrotation Xrotation Yrotation
              JOINT LeftArm
              {
                OFFSET 16.3182 6.07031e-005 0
                CHANNELS 3 Zrotation Xrotation Yrotation
                JOINT LeftForeArm
                {
                  OFFSET 27.0901 0 0
                  CHANNELS 3 Zrotation Xrotation Yrotation
                  JOINT LeftHand
                  {
                    OFFSET 24.5451 1.51738e-005 0
                    CHANNELS 3 Zrotation Xrotation Yrotation
                    End Site
                    {
                      OFFSET 0 0 0
                    }
                  }
                }
              }
            }
            JOINT Neck
            {
              OFFSET 5.0226 -0.0266342 0
              CHANNELS 3 Zrotation Xrotation Yrotation
              JOINT Head
              {
                OFFSET 6.69364 2.86102e-005 0
                CHANNELS 3 Zrotation Xrotation Yrotation
                End Site
                {
                  OFFSET 0 0 0
                }
              }
            }
          }
        }
      }
    }
  }
}
MOTION
Frames:	7
Frame Time:	0.0416667
-11.9356 73.8157 -71.5742 67.57 -59.7208 64.5732 -144.537 70.4778 71.8101 -62.2796 15.9803 -7.16897 55.6488 -3.27259 7.41978 32.8514 1.63927 -0.529682 167.774 48.9251 82.454 -91.7218 -14.3025 -1.64223 72.8231 -22.7919 -3.94466 51.2665 -33.0808 -7.0872 0.333582 14.9962 -89.5672 -3.12334 0.810236 0.910187 -14.7944 0.849509 0.873648 -37.3278 0.499248 1.11161 -17.3151 0.499254 1.1116 88.5255 -27.5511 -110.772 12.0183 27.0289 -82.4114 1.54858 0.261598 -3.6529 -1.82329 -0.0778908 -6.79472 -96.4894 -36.9405 64.3695 -28.7424 -4.98522 -88.6548 3.91539 -6.92517 0.00342772 2.90085 -0.272059 -12.1178 -2.04806 1.00873 -18.0615 35.1828 13.1258 28.2312 
0.970773 75.336 -59.2143 62.5436 -58.0883 63.8667 -141.603 67.2999 68.201 -75.4014 23.6668 -4.11385 58.2675 5.70349 21.6741 48.65 9.14081 6.45275 169.638 40.9384 76.1175 -89.7291 -19.7322 -1.27285 65.9306 -4.03716 5.02086 41.5987 -20.0526 -10.4128 0.618588 14.5006 -89.5907 -2.1351 1.37341 0.901214 -13.8056 1.41174 0.839887 -36.342 1.03909 1.27232 -16.3293 1.03908 1.27231 84.9473 -37.5264 -113.072 7.3506 19.914 -72.591 3.85583 -1.92843 -9.05905 -11.5893 -0.386298 -0.978684 -96.7352 -37.9656 64.3823 -32.9032 0.869113 -83.3419 1.56129 -5.09003 0.50777 12.6407 -0.877473 -11.099 20.2834 -1.17307 -13.9875 15.4859 7.29376 24.9105 
11.5233 78.2256 -47.2669 56.1108 -54.9759 60.6802 -149.161 61.7003 74.6706 -78.7967 22.83 -2.57983 60.7774 9.02991 19.4938 58.8071 15.2738 12.0352 171.166 41.38 78.7496 -92.5347 -21.6393 -1.53448 55.4285 11.7731 6.49142 19.4045 13.5273 -3.26812 0.770313 13.6109 -89.374 -0.36083 1.76532 1.30265 -12.0312 1.82093 1.22367 -34.5669 1.29227 1.77294 -14.5542 1.29227 1.77294 86.8383 -41.9096 -108.185 8.89918 12.8008 -62.1854 2.82571 -3.02971 -20.8191 -13.2356 -0.431657 -1.40559 -93.8567 -40.6124 70.1183 -41.3953 3.96288 -73.486 2.26501 5.41393 -5.63652 11.3343 -0.748098 -9.89716 27.4451 0.210628 -3.35348 10.9918 2.83038 11.2298 
22.1965 82.1371 -35.0635 48.5831 -49.5268 55.4098 -159.136 51.3709 81.2206 -68.4793 25.6894 -4.29919 61.3331 11.7331 21.7202 63.7089 18.8945 14.8297 157.606 50.4715 94.3 -95.2244 -16.6798 -0.440721 60.2772 2.93434 -1.48882 21.1996 10.9116 -3.44107 0.549126 12.6007 -89.5879 1.66649 1.25426 0.837253 -10.0041 1.28989 0.781221 -32.5401 0.944668 1.17551 -12.5275 0.944663 1.17547 91.2108 -44.962 -100.085 12.0114 7.73357 -50.6719 -3.10723 -4.80525 -50.1499 -17.3433 -0.63888 -0.932268 -88.7591 -40.0745 78.4423 -46.5558 6.04082 -64.9722 9.04661 22.6537 -21.1824 4.31888 -0.620574 -13.4182 28.2513 1.25584 -1.71354 12.7365 3.20997 10.2048 
33.6909 87.1137 -22.5779 45.416 -47.3857 55.1591 -167.857 36.7106 87.9791 -52.7633 23.2786 -4.13089 60.9127 6.84608 13.2243 64.7035 19.1374 13.885 135.341 55.297 116.666 -87.9307 -13.4871 3.44918 68.2514 -1.80037 13.244 31.4472 -3.58433 -2.73701 0.344655 11.7833 -90.2324 3.30759 0.596031 -0.44931 -8.36332 0.575682 -0.475107 -30.8992 0.703513 -0.249398 -10.8866 0.703514 -0.249398 95.6137 -43.9902 -92.9723 18.5544 2.3988 -42.6542 -20.3304 -5.14713 -82.6693 -15.1997 -1.49587 6.18824 -83.5232 -39.2245 87.1941 -40.7684 9.47711 -54.6262 6.15029 17.5165 -37.5103 0.522134 -0.407631 -16.6913 22.3223 1.9757 -15.7807 12.9364 10.4868 24.3089 
46.2504 91.5411 -8.04797 44.614 -48.7994 52.9393 -176.263 16.6026 87.8549 -31.5822 17.4616 -0.775728 47.5174 -12.5229 -6.38676 50.4663 10.4183 9.94275 141.035 57.5518 115.975 -63.7478 -14.5574 10.5188 70.9836 -1.56121 19.9872 41.3295 -18.3885 -6.37215 0.166307 10.9732 -90.4091 4.92629 0.16463 -0.810348 -6.74491 0.128821 -0.816809 -29.2783 0.400549 -0.723408 -9.26569 0.40055 -0.723412 97.7652 -40.6502 -89.7545 21.6871 -11.2939 -34.4395 -26.7768 8.89291 -91.1604 -18.2628 -2.06838 8.06107 -83.606 -43.7546 87.6351 -27.2885 8.95325 -39.2185 1.11895 11.5473 -51.5523 1.0154 -0.532466 -18.9357 12.5373 4.7481 -21.7309 13.3717 14.4741 32.4801 
58.4708 91.4952 6.88975 52.5798 -50.6989 58.2056 175.869 8.7567 85.3347 -48.8985 18.477 4.93145 43.0088 -16.0688 -4.67645 38.1934 4.40142 15.0625 157.332 54.4372 105.441 -50.9101 -10.9173 10.5195 66.1817 -1.04844 7.88417 41.1122 -19.5353 -11.0172 0.155326 10.8337 -90.6363 5.20659 0.0471331 -1.25046 -6.46493 -0.00793171 -1.25133 -28.996 0.420744 -1.17851 -8.98335 0.420764 -1.17849 96.1592 -41.8472 -92.3818 21.3749 -15.2809 -27.0489 -16.3577 11.6149 -105.315 -17.1391 -1.93012 7.9326 -82.9202 -50.3583 89.4123 -17.4132 9.31251 -31.6106 -0.649404 7.68357 -61.5764 4.24866 -0.930821 -18.7496 23.2367 2.36925 -23.0107 -1.30649 10.5311 35.6247 
